<?xml version="1.0" encoding="UTF-8"?>
<svg version="1.1" xmlns="http://www.w3.org/2000/svg" width="512" height="512">
<path d="M0 0 C0.83796616 -0.00705963 1.67593231 -0.01411926 2.53929138 -0.02139282 C38.08373449 -0.25281346 38.08373449 -0.25281346 53.92578125 3.203125 C54.83811523 3.40180176 55.75044922 3.60047852 56.69042969 3.80517578 C91.97636485 11.78125493 125.75964072 26.95530605 152.92578125 51.203125 C153.40805176 51.63189941 153.89032227 52.06067383 154.38720703 52.50244141 C194.92156143 88.67412392 223.64037506 139.11082435 226.92578125 194.203125 C229.08096681 253.5862518 213.5750957 308.65039956 172.92578125 353.203125 C174.22629207 356.10417449 175.5495514 358.03512685 177.90600586 360.15991211 C178.52891006 360.73117325 179.15181427 361.30243439 179.79359436 361.89100647 C180.48561447 362.51865402 181.17763458 363.14630157 181.890625 363.79296875 C189.67031267 370.983539 197.20500872 378.39044188 204.6796875 385.89453125 C205.51701479 386.73429064 205.51701479 386.73429064 206.37125778 387.59101486 C210.41382498 391.6456813 214.45160222 395.70509765 218.48828125 399.765625 C222.56134821 403.8625168 226.63619356 407.957611 230.71525383 412.0485363 C232.32135726 413.66101897 233.92437512 415.27652323 235.52723694 416.89222717 C241.53131039 422.92909622 241.53131039 422.92909622 247.84960938 428.63354492 C253.7691505 433.70151868 259.19454688 439.30735849 264.703125 444.8125 C265.92233747 446.02849382 267.14162278 447.24441461 268.36097717 448.46026611 C270.90005525 450.99339211 273.43709455 453.52853993 275.97290039 456.06494141 C279.2250488 459.31719214 282.48406559 462.56246706 285.74481869 465.80608749 C288.25745966 468.30763437 290.76556731 470.81368818 293.27240181 473.32105255 C294.47290385 474.52037402 295.67502898 475.71807308 296.87879753 476.91411591 C298.55409715 478.57965224 300.2229829 480.25136311 301.89038086 481.92480469 C302.38850784 482.41731216 302.88663483 482.90981964 303.39985657 483.41725159 C307.39080062 487.44518253 308.1167637 490.37597769 308.30078125 495.953125 C308.25242072 500.95239439 307.71934973 504.08664141 304.390625 507.8671875 C299.34927229 512.46490118 294.47182746 512.57136629 287.92578125 512.69921875 C280.93328631 511.54290774 276.15836481 505.69201544 271.40234375 500.83984375 C270.69733734 500.12963577 269.99233093 499.4194278 269.26596069 498.68769836 C267.02272704 496.42674052 264.78630994 494.15919937 262.55078125 491.890625 C260.32156365 489.63361468 258.09083698 487.37815035 255.85702515 485.12568665 C254.47169165 483.72828489 253.08903592 482.32822117 251.70962524 480.92497253 C248.63982299 477.82387924 245.54148248 474.830827 242.22216797 471.99731445 C236.93241574 467.4322928 232.05794338 462.44656353 227.13868713 457.49119568 C225.35722877 455.69680165 223.57251487 453.90570091 221.7869873 452.11535645 C217.35594695 447.67105131 212.93040885 443.22128037 208.50469971 438.77166748 C204.75322474 435.00035798 200.99963656 431.23117522 197.24330139 427.46470642 C195.49763415 425.71262704 193.75504173 423.95753023 192.01257324 422.20227051 C187.04143668 417.20842994 182.04518461 412.30999889 176.68200684 407.73226929 C173.73132312 405.16311121 170.9906197 402.3914809 168.23828125 399.61328125 C167.3563208 398.72919838 167.3563208 398.72919838 166.45654297 397.82725525 C164.61055764 395.97574882 162.76811233 394.12076683 160.92578125 392.265625 C159.66169275 390.99651127 158.39737169 389.72762911 157.1328125 388.45898438 C154.06111401 385.3763618 150.99258117 382.29062072 147.92578125 379.203125 C143.66436535 380.80839449 140.34650723 382.97096605 136.73828125 385.703125 C128.57089393 391.69261537 119.89802001 396.53213266 110.92578125 401.203125 C109.92369629 401.73268799 109.92369629 401.73268799 108.90136719 402.27294922 C82.85018733 415.88498391 52.28210499 424.24098251 22.81640625 424.40625 C21.97561523 424.41326431 21.13482422 424.42027863 20.26855469 424.42750549 C17.57090841 424.44491016 14.8734816 424.45135753 12.17578125 424.453125 C11.25438354 424.45379974 10.33298584 424.45447449 9.38366699 424.45516968 C-4.00526725 424.43956996 -16.9431084 424.02855836 -30.07421875 421.203125 C-30.89019531 421.04215332 -31.70617187 420.88118164 -32.546875 420.71533203 C-53.32868888 416.58673122 -73.5088999 409.42024569 -92.07421875 399.203125 C-93.2240625 398.59082031 -94.37390625 397.97851562 -95.55859375 397.34765625 C-120.62211772 383.59674095 -143.8803925 364.09806206 -161.07421875 341.203125 C-161.51797852 340.61934082 -161.96173828 340.03555664 -162.41894531 339.43408203 C-187.22035437 306.55838057 -203.90412912 264.78346618 -204.3125 223.234375 C-204.32229385 222.40452087 -204.33208771 221.57466675 -204.34217834 220.71966553 C-204.91340878 159.75192497 -185.29897904 106.52939224 -142.59570312 62.43725586 C-135.24724735 54.99136304 -127.51165827 48.37631505 -119.07421875 42.203125 C-118.07519531 41.45933594 -117.07617188 40.71554688 -116.046875 39.94921875 C-82.82439684 16.04784772 -41.22404703 0.23242794 0 0 Z M-78.07421875 56.203125 C-78.70811523 56.55101074 -79.34201172 56.89889648 -79.99511719 57.25732422 C-121.15621663 80.18873735 -150.97885408 119.6142993 -164.33105469 164.50390625 C-166.38503156 171.9640798 -167.84525509 179.56730385 -169.07421875 187.203125 C-169.26628906 188.38261719 -169.45835937 189.56210938 -169.65625 190.77734375 C-175.06427898 237.12942262 -162.03459131 284.588512 -133.07421875 321.203125 C-128.88559542 326.33218352 -124.52537926 331.30123327 -120.07421875 336.203125 C-119.37683594 336.97398437 -118.67945313 337.74484375 -117.9609375 338.5390625 C-86.93143011 371.09678974 -39.5996603 390.00016371 4.87109375 391.40625 C51.78267882 392.11538912 99.13811716 377.1626278 133.58984375 344.41796875 C135.61975998 342.49328229 137.70033578 340.72320895 139.86328125 338.953125 C170.73115718 311.92798464 189.96489301 267.62402504 192.92578125 227.203125 C195.35032163 176.51968968 180.48147096 129.53769562 146.15649414 91.63964844 C139.86329339 84.87627983 133.28499908 78.80460159 125.92578125 73.203125 C124.47365234 72.01009766 124.47365234 72.01009766 122.9921875 70.79296875 C114.2948587 63.70176687 104.88035039 58.33702241 94.92578125 53.203125 C93.88164063 52.65760986 93.88164063 52.65760986 92.81640625 52.10107422 C39.40044015 24.48838373 -25.83248536 27.52217336 -78.07421875 56.203125 Z " fill="#FFFFFF" transform="translate(204.07421875,-0.203125)"/>
</svg>
